:SAMPLES-PER-SECOND 30
:FRAME-RANGE 1-4244
:FULLY-SPECIFIED
:DEGREES
1990
root  3.70128 22.0785 58.6426 -71.5721 61.7457 -99.3065
RightUpLeg  -80.7749 -20.4804 23.6533
RightLeg  108.332 7.27089 -17.9608
RightFoot  -34.3323 2.68962 14.3181
RightToes  -3.31784e-009 0 -3.6325e-017
Spine  52.8096 -11.181 19.4753
Spine1  6.65975 0.461623 -4.62448
HEad  -38.3022 36.2838 -34.1789
LeftShoulder1  1.01957 -7.57491 -0.868341
LeftArm  -49.1834 -70.4004 -5.39747
LeftForeArm  9.77546 8.1722 -14.0124
LeftHand  0.963382 10.6137 21.4607
RightShoulder  10.2825 39.0079 16.9501
RightArm  -20.3373 26.6689 2.80926
RightForeArm  28.506 0.07729 13.1082
RightHand  -0.130679 1.51738 -2.3418
LeftUpLeg  -23.9989 -1.27439 16.287
LeftLeg  100.422 3.46991 -16.5299
LeftFoot  -8.03658 0.295417 -8.56256
LeftToes  1.0277e-010 -6.71454e-011 3.04227e-011
1991
root  4.13249 22.2755 58.7831 -75.1597 60.872 -99.845
RightUpLeg  -86.8518 -21.3702 33.0545
RightLeg  104.033 5.21508 -16.4453
RightFoot  -34.1855 2.77493 14.8232
RightToes  -3.31784e-009 0 -3.6325e-017
Spine  53.1463 -10.3106 16.5474
Spine1  7.64187 -0.612978 -2.28952
HEad  -40.1177 38.565 -34.7296
LeftShoulder1  1.35148 -8.49002 -3.21202
LeftArm  -47.6395 -68.5655 -5.52326
LeftForeArm  11.8307 8.17837 -14.4279
LeftHand  1.01759 10.8546 21.6423
RightShoulder  10.5635 36.2654 19.5869
RightArm  -10.5432 23.647 5.06044
RightForeArm  18.046 8.51443 12.7638
RightHand  -0.126321 2.01053 -2.15762
LeftUpLeg  -19.1456 -2.83758 18.3202
LeftLeg  98.0713 3.32661 -19.4773
LeftFoot  -7.80249 0.339371 -9.45933
LeftToes  1.0277e-010 -6.71454e-011 3.04227e-011
1992
root  4.48645 22.5832 59.0202 -79.605 59.6962 -101.215
RightUpLeg  -90.421 -21.2585 41.7594
RightLeg  98.4515 2.40253 -11.1074
RightFoot  -33.4258 2.50927 13.9717
RightToes  -3.31784e-009 0 -3.6325e-017
Spine  54.1882 -10.1568 14.2083
Spine1  8.237 -1.83011 -1.27959
HEad  -43.5402 40.1282 -35.3545
LeftShoulder1  1.53454 -9.04334 -4.29984
LeftArm  -44.2945 -65.9367 -6.06136
LeftForeArm  12.9717 8.01675 -15.0952
LeftHand  1.04077 10.8848 21.9839
RightShoulder  11.0483 32.5253 24.0501
RightArm  5.43601 19.8349 7.58254
RightForeArm  2.65931 16.1874 9.71305
RightHand  -0.0758418 1.59041 -1.40922
LeftUpLeg  -14.7621 -4.49771 20.5375
LeftLeg  95.8049 2.66815 -20.5134
LeftFoot  -6.65324 0.453325 -10.0831
LeftToes  1.0277e-010 -6.71454e-011 3.04227e-011
1993
root  4.97071 22.88 59.4514 -84.2693 58.175 -103.134
RightUpLeg  -91.0627 -19.8509 48.16
RightLeg  93.4973 1.4201 -11.3765
RightFoot  -31.5786 0.749572 5.40267
RightToes  -3.31784e-009 0 -3.6325e-017
Spine  55.5058 -9.64172 12.0826
Spine1  8.4266 -2.78008 0.794996
HEad  -47.7147 40.7905 -37.0196
LeftShoulder1  1.82106 -9.50277 -6.29608
LeftArm  -40.5442 -63.5656 -5.91848
LeftForeArm  13.8106 7.57767 -15.8581
LeftHand  1.07697 11.0403 22.1052
RightShoulder  10.7718 28.3 27.5213
RightArm  20.5386 14.2856 9.21262
RightForeArm  -7.16709 21.5951 6.15035
RightHand  -0.0423718 1.44734 -0.855843
LeftUpLeg  -10.3287 -6.25036 23.4248
LeftLeg  92.9928 1.62989 -20.7637
LeftFoot  -5.29483 0.567954 -10.1346
LeftToes  1.0277e-010 -6.71454e-011 3.04227e-011
1994
root  5.63558 23.0591 59.9681 -88.9343 56.3766 -105.471
RightUpLeg  -86.9625 -17.8605 46.7062
RightLeg  92.9105 1.7103 -15.9072
RightFoot  -29.4296 0.654515 5.36677
RightToes  -3.31784e-009 0 -3.6325e-017
Spine  56.4438 -9.48812 10.7087
Spine1  8.39526 -3.53503 2.6841
HEad  -51.7397 41.509 -39.063
LeftShoulder1  2.16763 -9.90793 -8.71894
LeftArm  -34.7691 -62.2275 -5.09568
LeftForeArm  12.724 6.39265 -17.0589
LeftHand  1.09995 11.4201 21.2094
RightShoulder  10.1676 24.3843 30.285
RightArm  29.5297 8.09998 9.37862
RightForeArm  -7.0731 23.4436 5.41906
RightHand  -0.0358809 1.47797 -0.744757
LeftUpLeg  -5.43954 -8.0363 26.6831
LeftLeg  89.5327 0.308456 -20.5194
LeftFoot  -5.33576 0.530686 -9.49251
LeftToes  1.0277e-010 -6.71454e-011 3.04227e-011
1995
root  6.4651 23.2358 60.4634 -93.6397 54.4025 -108.424
RightUpLeg  -82.928 -16.5226 45.5843
RightLeg  93.2381 2.24664 -20.2703
RightFoot  -29.8632 1.13418 8.19204
RightToes  -3.31784e-009 0 -3.6325e-017
Spine  56.8516 -9.42242 9.63894
Spine1  8.62692 -4.38064 4.92824
HEad  -55.3027 41.719 -41.1727
LeftShoulder1  2.32698 -9.89009 -10.0705
LeftArm  -26.9054 -61.1399 -6.17333
LeftForeArm  10.276 4.68968 -18.1049
LeftHand  1.08742 11.5657 20.5213
RightShoulder  8.93957 20.5977 31.0194
RightArm  37.6876 2.87566 10.1113
RightForeArm  -8.45475 22.4485 5.80745
RightHand  -0.0677096 -0.0117636 -1.46989
LeftUpLeg  -0.54545 -9.73237 30.095
LeftLeg  85.0911 -1.2985 -19.5559
LeftFoot  -6.40306 0.39219 -8.19672
LeftToes  1.0277e-010 -6.71454e-011 3.04227e-011
1996
root  7.30105 23.5846 60.798 -97.682 53.4611 -111.449
RightUpLeg  -79.9358 -16.9314 45.413
RightLeg  93.0126 2.47749 -23.3836
RightFoot  -30.8966 1.4055 9.36159
RightToes  -3.31784e-009 0 -3.6325e-017
Spine  57.8076 -9.55961 8.33052
Spine1  7.16108 -5.40945 6.64208
HEad  -58.2499 41.0511 -42.02
LeftShoulder1  2.36922 -9.77539 -10.5916
LeftArm  -15.9923 -60.1617 -8.72611
LeftForeArm  5.25576 2.1238 -19.0686
LeftHand  0.960767 11.5125 18.4506
RightShoulder  7.49473 16.7635 30.9783
RightArm  41.5681 -1.63563 10.7016
RightForeArm  -9.97881 21.0754 6.93859
RightHand  0.0130009 0.251715 0.240704
LeftUpLeg  4.16046 -12.0487 30.6247
LeftLeg  79.3599 -2.72738 -15.7782
LeftFoot  -8.84028 0.221395 -7.7104
LeftToes  1.0277e-010 -6.71454e-011 3.04227e-011
